HIERARCHY
ROOT mixamorig:Hips
{
	OFFSET -0.000000 103.991470 2.076077 
	CHANNELS 6 Xposition Yposition Zposition Xrotation Yrotation Zrotation
	JOINT mixamorig:Neck
	{
		OFFSET 0.000010 46.036713 -4.758868 
		CHANNELS 6 Xposition Yposition Zposition Xrotation Yrotation Zrotation
		End Site
		{
			OFFSET 0.000000 13.794479 0.000000 
		}
	}
	JOINT mixamorig:LeftShoulder
	{
		OFFSET 4.570455 40.311035 -4.870688 
		CHANNELS 6 Xposition Yposition Zposition Xrotation Yrotation Zrotation
		JOINT mixamorig:LeftForeArm
		{
			OFFSET 38.433891 -0.524674 -2.232082 
			CHANNELS 6 Xposition Yposition Zposition Xrotation Yrotation Zrotation
			JOINT mixamorig:LeftHand
			{
				OFFSET 28.328835 -0.000015 0.000038 
				CHANNELS 6 Xposition Yposition Zposition Xrotation Yrotation Zrotation
			}
		}
	JOINT mixamorig:RightShoulder
	{
		OFFSET -4.569961 40.311234 -4.870717 
		CHANNELS 6 Xposition Yposition Zposition Xrotation Yrotation Zrotation
		JOINT mixamorig:RightForeArm
		{
			OFFSET -38.434364 -0.524842 -2.232087 
			CHANNELS 6 Xposition Yposition Zposition Xrotation Yrotation Zrotation
			JOINT mixamorig:RightHand
			{
				OFFSET -28.328835 0.000000 0.000056 
				CHANNELS 6 Xposition Yposition Zposition Xrotation Yrotation Zrotation
			}
		}
	JOINT mixamorig:LeftUpLeg
	{
		OFFSET 8.207790 3.429870 -1.468034 
		CHANNELS 6 Xposition Yposition Zposition Xrotation Yrotation Zrotation
		JOINT mixamorig:LeftLeg
		{
			OFFSET -0.000001 -44.370472 0.284643 
			CHANNELS 6 Xposition Yposition Zposition Xrotation Yrotation Zrotation
			JOINT mixamorig:LeftFoot
			{
				OFFSET 0.000001 -44.427872 -2.982191 
				CHANNELS 6 Xposition Yposition Zposition Xrotation Yrotation Zrotation
			}
		}
		JOINT mixamorig:RightUpLeg
		{
			OFFSET -8.207796 -6.751663 -1.599559 
			CHANNELS 6 Xposition Yposition Zposition Xrotation Yrotation Zrotation
			JOINT mixamorig:RightLeg
			{
				OFFSET 0.000000 -44.370537 0.286156 
				CHANNELS 6 Xposition Yposition Zposition Xrotation Yrotation Zrotation
				JOINT mixamorig:RightFoot
				{
					OFFSET 0.000001 -44.427731 -2.983789 
					CHANNELS 6 Xposition Yposition Zposition Xrotation Yrotation Zrotation
					JOINT mixamorig:RightToeBase
					{
						OFFSET -0.000002 -8.728668 10.710562 
						CHANNELS 6 Xposition Yposition Zposition Xrotation Yrotation Zrotation
						JOINT mixamorig:RightToe_End
						{
							OFFSET -0.000002 -0.000676 9.278120 
							CHANNELS 6 Xposition Yposition Zposition Xrotation Yrotation Zrotation
							End Site
							{
								OFFSET 0.000000 9.278120 0.000000 
							}
						}
					}
				}
			}
		}
	}
}
MOTION
Frames: 11
Frame Time: 0.033333
0.693389 -12.170001 1.452741 5.816791 50.756592 -10.499541 0.000009 10.181602 0.131521 -7.391196 -48.628181 12.245325 -0.000006 9.617882 1.685001 -4.889703 -15.282707 -4.518513 10.592368 -0.524554 -2.232112 -0.001111 -80.175331 -0.001131 28.328844 -0.000011 0.000040 17.944677 -7.956964 27.576769 2.466137 -1.575023 2.682412 7.876547 25.259834 -2.788645 -10.592863 -0.524783 -2.232102 -0.000002 15.604610 -0.000005 -28.328835 -0.000019 0.000061 48.183205 -3.614985 33.744957 -8.076670 -0.488467 -3.806007 -13.026573 -4.699346 8.751796 -0.000002 -44.370472 0.284641 29.486893 -9.560321 1.883574 -0.000002 -44.427879 -2.982189 -14.983017 -10.105722 -8.371281 -0.000001 -8.728671 10.710561 -11.893281 -3.838007 -11.080056 0.000003 -44.370544 0.286154 30.646795 -10.182727 5.857004 0.000003 -44.427734 -2.983789 -9.005303 -22.351116 8.042250 -0.000002 -8.728668 10.710559 -2.467426 0.000005 0.000000 -0.000000 -0.000676 9.278120 0.000000 -0.000000 -0.000000 
-1.300287 -12.912093 2.117654 8.192262 53.691025 -10.341297 0.000008 10.181597 0.131523 -9.396777 -53.280819 11.440913 0.000001 9.617909 1.685010 -10.409246 -12.315148 -4.640047 10.592371 -0.524562 -2.232114 -0.001062 -79.177826 -0.001078 28.328827 -0.000013 0.000039 20.934095 -6.276862 28.024673 2.466136 -1.575066 2.682413 -11.467744 16.259258 0.437521 -10.592846 -0.524789 -2.232095 0.000000 6.844273 0.000004 -28.328838 0.000003 0.000055 53.675812 -17.179964 31.748814 -8.076676 -0.488453 -3.806025 -13.764708 -2.481141 8.916809 -0.000003 -44.370472 0.284643 31.139790 -9.286204 5.028693 0.000002 -44.427872 -2.982189 -15.981538 -13.497030 -11.409388 -0.000004 -8.728670 10.710560 -12.913949 -6.514338 -10.897463 -0.000003 -44.370525 0.286156 34.913006 -10.155643 5.442001 0.000003 -44.427731 -2.983785 -11.836304 -21.067678 7.318844 0.000000 -8.728669 10.710559 -1.762601 0.000001 0.000002 -0.000002 -0.000676 9.278120 -0.000000 0.000001 0.000000 
-3.229667 -14.030154 2.920065 9.273367 55.413570 -9.338963 0.000009 10.181602 0.131521 -12.803699 -56.064087 9.392300 -0.000003 9.617893 1.685002 -16.937000 -11.466525 -7.698828 10.592371 -0.524584 -2.232118 -0.000792 -76.860909 -0.000852 28.328827 -0.000014 0.000042 20.691261 -4.198147 27.881824 2.466147 -1.575047 2.682409 -23.112759 9.297906 0.943197 -10.592850 -0.524774 -2.232110 -0.000001 2.139230 0.000000 -28.328838 -0.000005 0.000054 42.315136 -27.117542 17.800032 -8.076664 -0.488468 -3.806007 -15.039327 -1.524474 9.613437 0.000001 -44.370468 0.284639 34.197552 -9.256367 7.883589 0.000001 -44.427872 -2.982189 -17.668285 -14.784723 -14.043647 -0.000006 -8.728671 10.710562 -13.979245 -8.734385 -9.970527 0.000006 -44.370533 0.286158 39.624256 -10.158140 5.050765 -0.000000 -44.427731 -2.983788 -14.949631 -20.832729 6.611745 -0.000003 -8.728668 10.710558 -1.543047 0.000008 0.000004 -0.000004 -0.000676 9.278118 -0.000000 0.000000 -0.000000 
-4.947918 -15.375814 3.830868 8.833282 55.407066 -7.292435 0.000009 10.181587 0.131521 -16.409929 -56.263264 7.317989 -0.000003 9.617899 1.685007 -23.252983 -11.895965 -14.168607 10.592368 -0.524572 -2.232119 -0.000722 -75.324890 -0.000733 28.328844 -0.000001 0.000041 11.578304 -1.819412 26.929447 2.466137 -1.575066 2.682408 -28.612427 6.191948 1.160067 -10.592845 -0.524787 -2.232097 0.000004 2.969377 -0.000001 -28.328833 0.000004 0.000063 22.979582 -25.956356 -1.952831 -8.076677 -0.488454 -3.806003 -16.121159 -1.906123 11.377336 0.000001 -44.370476 0.284647 38.168530 -9.584541 9.690476 0.000001 -44.427868 -2.982190 -19.587885 -14.183490 -15.844125 -0.000003 -8.728669 10.710562 -14.177399 -9.882888 -8.225838 0.000001 -44.370529 0.286154 44.095181 -10.181659 5.474699 0.000003 -44.427731 -2.983786 -18.111576 -21.543871 5.596559 -0.000000 -8.728668 10.710558 -1.535211 0.000006 -0.000003 -0.000002 -0.000676 9.278118 -0.000000 0.000000 0.000000 
-6.293370 -16.746424 4.716221 7.340545 53.558899 -4.216380 0.000009 10.181602 0.131522 -19.109913 -53.961052 6.149522 0.000000 9.617853 1.685012 -29.783150 -13.014789 -22.990807 10.592368 -0.524565 -2.232116 -0.000839 -77.065765 -0.000883 28.328840 -0.000007 0.000029 -7.291667 0.687790 27.904289 2.466134 -1.575056 2.682415 -30.813591 7.012473 2.518432 -10.592837 -0.524805 -2.232103 -0.000000 7.459460 0.000001 -28.328827 0.000002 0.000054 10.497718 -18.484762 -13.107077 -8.076665 -0.488433 -3.806010 -16.367350 -2.513384 14.656124 -0.000003 -44.370468 0.284644 42.437801 -10.322933 10.098804 0.000003 -44.427872 -2.982190 -21.428930 -12.773448 -16.597904 -0.000005 -8.728671 10.710561 -12.976034 -9.959252 -5.752930 0.000002 -44.370518 0.286157 47.790180 -10.190964 6.710651 0.000002 -44.427727 -2.983788 -20.968872 -22.279087 4.381871 -0.000002 -8.728668 10.710556 -1.494238 -0.000004 0.000002 -0.000003 -0.000676 9.278118 -0.000000 0.000000 0.000000 
-7.157864 -17.965294 5.413798 5.817255 50.227833 -0.752429 0.000008 10.181604 0.131520 -20.764378 -49.993874 5.709888 0.000006 9.617869 1.685007 -38.253937 -14.352712 -31.857021 10.592373 -0.524582 -2.232117 -0.001548 -83.190842 -0.001546 28.328846 -0.000016 0.000040 -29.163338 0.893967 32.948696 2.466135 -1.575043 2.682405 -32.856174 10.753219 5.323150 -10.592841 -0.524808 -2.232096 0.000004 11.602640 -0.000002 -28.328844 0.000021 0.000052 6.359839 -14.325849 -16.857069 -8.076685 -0.488462 -3.806007 -15.879350 -1.847661 18.884237 -0.000005 -44.370472 0.284645 46.869225 -10.978530 9.932168 -0.000000 -44.427872 -2.982188 -23.329025 -11.507129 -15.399862 -0.000000 -8.728670 10.710561 -10.677115 -9.493040 -3.039790 -0.000001 -44.370537 0.286153 50.527920 -10.177779 8.055342 0.000001 -44.427731 -2.983785 -23.195538 -21.937128 3.335620 -0.000002 -8.728670 10.710557 -1.321931 -0.000005 0.000000 0.000000 -0.000676 9.278122 0.000000 0.000001 0.000000 
-7.522252 -18.895561 5.849647 5.048815 45.678719 1.983438 0.000006 10.181610 0.131526 -21.790169 -45.026981 5.348669 0.000001 9.617882 1.685009 -48.551941 -16.316505 -37.671463 10.592367 -0.524566 -2.232116 0.005886 -92.072868 0.005925 28.328840 -0.000015 0.000039 -45.141483 -2.030117 38.381054 2.466136 -1.575036 2.682415 -35.553093 15.883165 8.975555 -10.592851 -0.524786 -2.232104 -0.000005 14.078233 -0.000000 -28.328842 0.000018 0.000066 6.534527 -13.029597 -18.468027 -8.076694 -0.488466 -3.806012 -15.109364 0.617267 22.803679 -0.000002 -44.370468 0.284649 50.949062 -11.019785 9.823945 0.000002 -44.427872 -2.982191 -24.997589 -9.688728 -12.681567 0.000001 -8.728671 10.710561 -8.296469 -8.935502 -0.950624 0.000000 -44.370541 0.286154 52.439941 -10.159931 8.792898 0.000002 -44.427731 -2.983785 -24.580198 -20.117970 2.803602 -0.000003 -8.728669 10.710561 -1.062980 -0.000003 -0.000002 -0.000003 -0.000676 9.278120 -0.000000 -0.000000 -0.000000 
-7.468721 -19.407166 6.050775 5.097748 39.774349 3.228713 0.000009 10.181594 0.131528 -22.504833 -39.079014 4.763258 -0.000003 9.617882 1.685008 -58.607101 -19.738766 -38.562881 10.592373 -0.524592 -2.232118 0.001402 -99.876923 0.001400 28.328833 -0.000013 0.000034 -50.062382 -4.230464 40.007710 2.466138 -1.575046 2.682407 -37.584015 21.057760 12.455853 -10.592845 -0.524798 -2.232105 -0.000003 17.869957 0.000001 -28.328840 -0.000004 0.000055 7.969583 -11.150344 -19.662289 -8.076670 -0.488471 -3.806016 -14.372892 4.562182 25.257650 -0.000003 -44.370472 0.284656 53.669270 -10.406340 9.825267 0.000002 -44.427876 -2.982188 -25.975718 -6.488439 -10.145397 -0.000005 -8.728670 10.710560 -6.937976 -8.417677 -0.188194 0.000004 -44.370537 0.286151 53.640556 -10.145659 8.502718 0.000001 -44.427734 -2.983786 -25.082834 -17.163345 2.928954 -0.000001 -8.728670 10.710557 -0.804592 -0.000002 0.000001 -0.000002 -0.000676 9.278120 0.000000 0.000000 -0.000000 
-7.113364 -19.403503 6.063678 5.570789 32.419575 3.165751 0.000007 10.181613 0.131524 -23.134212 -31.970186 4.009183 -0.000004 9.617889 1.685007 -66.711311 -23.632496 -34.670723 10.592365 -0.524567 -2.232116 0.000967 -103.332100 0.000981 28.328840 -0.000014 0.000037 -41.938225 -3.627791 36.919716 2.466140 -1.575050 2.682421 -37.478294 25.725601 14.680343 -10.592844 -0.524793 -2.232103 -0.000009 26.402845 0.000002 -28.328842 0.000008 0.000056 9.582176 -8.649859 -19.993334 -8.076674 -0.488440 -3.806017 -14.192529 9.150992 25.773750 -0.000001 -44.370476 0.284646 55.063560 -9.077179 9.993544 0.000001 -44.427868 -2.982193 -25.433643 -3.247808 -7.928205 -0.000004 -8.728671 10.710561 -7.101334 -7.835982 -0.751227 0.000001 -44.370533 0.286151 53.989731 -10.129176 7.214051 -0.000000 -44.427723 -2.983785 -24.771423 -13.630141 3.569683 -0.000002 -8.728669 10.710561 -0.617457 -0.000001 -0.000002 0.000001 -0.000676 9.278122 -0.000000 0.000001 0.000000 
-6.501411 -18.867386 5.903265 6.108686 24.131548 2.684676 0.000007 10.181602 0.131526 -23.956154 -23.980961 3.157426 -0.000007 9.617923 1.685006 -72.598427 -25.924522 -26.620050 10.592371 -0.524568 -2.232121 0.001107 -102.488174 0.001127 28.328844 -0.000004 0.000036 -23.703087 -3.628153 32.324528 2.466136 -1.575047 2.682416 -34.913887 29.911350 14.776753 -10.592845 -0.524787 -2.232101 -0.000004 39.301285 0.000001 -28.328840 0.000010 0.000057 11.053007 -7.636873 -19.080088 -8.076673 -0.488484 -3.806008 -14.729667 12.811044 25.284353 -0.000000 -44.370468 0.284647 55.492805 -9.047076 10.005193 -0.000002 -44.427868 -2.982192 -20.465157 -1.575444 -9.414734 -0.000005 -8.728669 10.710563 -8.448373 -7.006242 -2.072493 -0.000000 -44.370529 0.286157 53.192928 -10.186908 5.587963 0.000002 -44.427727 -2.983787 -23.680342 -9.897201 4.385649 -0.000001 -8.728670 10.710559 -0.531683 -0.000003 -0.000001 -0.000002 -0.000676 9.278120 0.000000 0.000000 0.000000 
-5.596398 -17.854935 5.589384 6.552631 15.888246 2.672469 0.000009 10.181597 0.131528 -25.091976 -15.780985 2.125346 0.000001 9.617908 1.685007 -76.344368 -26.351135 -15.611929 10.592376 -0.524582 -2.232120 0.001429 -99.179672 0.001440 28.328844 -0.000018 0.000035 -6.412624 -5.392369 30.786329 2.466141 -1.575054 2.682413 -30.676291 33.625580 12.556623 -10.592850 -0.524774 -2.232099 0.000003 53.249695 -0.000005 -28.328844 0.000002 0.000052 11.966291 -8.890404 -17.727686 -8.076671 -0.488460 -3.806008 -14.955217 14.660723 24.394413 -0.000001 -44.370468 0.284654 54.061447 -9.316319 9.281109 0.000003 -44.427872 -2.982193 -14.711601 -3.278234 -11.312468 -0.000006 -8.728671 10.710562 -10.228448 -5.818368 -3.430790 -0.000000 -44.370529 0.286158 50.967197 -10.279880 4.468215 0.000001 -44.427731 -2.983789 -21.794020 -6.248543 4.996399 -0.000002 -8.728669 10.710560 -0.533473 0.000002 -0.000001 0.000000 -0.000676 9.278120 -0.000000 0.000000 0.000000 
